<svg width="24" height="25" viewBox="0 0 24 25" fill="none" xmlns="http://www.w3.org/2000/svg">
<path d="M1 8.64144H23M1 8.64144V19.3972C1 20.7663 1 21.4504 1.29973 21.9733C1.56338 22.4332 1.98377 22.8076 2.50122 23.0419C3.0889 23.3081 3.85862 23.3081 5.39575 23.3081H18.6042C20.1414 23.3081 20.91 23.3081 21.4977 23.0419C22.0151 22.8076 22.4369 22.4332 22.7006 21.9733C23 21.4509 23 20.7677 23 19.4014V8.64144M1 8.64144V7.6639C1 6.29488 1 5.60986 1.29973 5.08697C1.56338 4.62702 1.98377 4.25334 2.50122 4.01898C3.08948 3.75255 3.86012 3.75255 5.40027 3.75255H6.5M23 8.64144V7.65988C23 6.29354 23 5.60935 22.7006 5.08697C22.4369 4.62702 22.0151 4.25334 21.4977 4.01898C20.9094 3.75255 20.1404 3.75255 18.6003 3.75255H17.5M6.5 3.75255H17.5M6.5 3.75255V1.30811M17.5 3.75255V1.30811M16.125 13.5303L10.625 18.4192L7.875 15.9748" stroke="#5C5C5C" stroke-width="2" stroke-linecap="round" stroke-linejoin="round"/>
</svg>
