<svg width="28" height="28" viewBox="0 0 28 28" fill="none" xmlns="http://www.w3.org/2000/svg">
<path d="M13.551 17.7856C11.2134 17.7856 9.31628 15.8885 9.31628 13.551C9.31628 11.2134 11.2134 9.31628 13.551 9.31628C15.8885 9.31628 17.7856 11.2134 17.7856 13.551C17.7856 15.8885 15.8885 17.7856 13.551 17.7856ZM13.551 11.0102C12.1507 11.0102 11.0102 12.1507 11.0102 13.551C11.0102 14.9512 12.1507 16.0918 13.551 16.0918C14.9512 16.0918 16.0918 14.9512 16.0918 13.551C16.0918 12.1507 14.9512 11.0102 13.551 11.0102Z" fill="#7B7B7B"/>
<path d="M17.1758 25.0579C16.9387 25.0579 16.7016 25.024 16.4644 24.9676C15.7643 24.7756 15.1771 24.3352 14.8044 23.7141L14.6689 23.4883C14.0027 22.3364 13.088 22.3364 12.4217 23.4883L12.2975 23.7028C11.9248 24.3352 11.3376 24.7869 10.6375 24.9676C9.92607 25.1596 9.19207 25.0579 8.57098 24.6853L6.62868 23.5673C5.93984 23.1721 5.44297 22.5284 5.22841 21.7492C5.02515 20.97 5.12678 20.1683 5.52202 19.4794C5.8495 18.9035 5.93984 18.3841 5.74786 18.0566C5.55589 17.7291 5.07032 17.5371 4.40406 17.5371C2.75536 17.5371 1.41156 16.1933 1.41156 14.5446V12.5572C1.41156 10.9085 2.75536 9.56467 4.40406 9.56467C5.07032 9.56467 5.55589 9.37269 5.74786 9.04521C5.93984 8.71773 5.86079 8.19828 5.52202 7.62236C5.12678 6.93352 5.02515 6.12046 5.22841 5.35258C5.43168 4.5734 5.92854 3.92973 6.62868 3.53449L8.58227 2.41654C9.85832 1.65994 11.5409 2.10035 12.3088 3.39898L12.4443 3.62483C13.1105 4.77666 14.0252 4.77666 14.6915 3.62483L14.8157 3.41027C15.5836 2.10035 17.2662 1.65994 18.5535 2.42783L20.4958 3.54578C21.1847 3.94102 21.6815 4.58469 21.8961 5.36387C22.0993 6.14305 21.9977 6.94482 21.6025 7.63366C21.275 8.20957 21.1847 8.72902 21.3766 9.05651C21.5686 9.38399 22.0542 9.57596 22.7204 9.57596C24.3691 9.57596 25.7129 10.9198 25.7129 12.5685V14.5559C25.7129 16.2046 24.3691 17.5484 22.7204 17.5484C22.0542 17.5484 21.5686 17.7404 21.3766 18.0679C21.1847 18.3954 21.2637 18.9148 21.6025 19.4907C21.9977 20.1796 22.1106 20.9926 21.8961 21.7605C21.6928 22.5397 21.1959 23.1834 20.4958 23.5786L18.5422 24.6966C18.1131 24.9337 17.6501 25.0579 17.1758 25.0579ZM13.551 20.8797C14.556 20.8797 15.4933 21.5121 16.1369 22.63L16.2611 22.8446C16.3967 23.0817 16.6225 23.2511 16.8935 23.3189C17.1645 23.3866 17.4356 23.3528 17.6614 23.2172L19.615 22.088C19.9086 21.9186 20.1345 21.6363 20.2248 21.2975C20.3151 20.9588 20.27 20.6087 20.1006 20.3151C19.4569 19.2084 19.3779 18.0679 19.8747 17.1984C20.3716 16.3288 21.3992 15.832 22.6866 15.832C23.4093 15.832 23.9852 15.2561 23.9852 14.5333V12.5459C23.9852 11.8344 23.4093 11.2472 22.6866 11.2472C21.3992 11.2472 20.3716 10.7504 19.8747 9.88085C19.3779 9.01134 19.4569 7.8708 20.1006 6.76414C20.27 6.47053 20.3151 6.12046 20.2248 5.78169C20.1345 5.44292 19.9199 5.1719 19.6263 4.99122L17.6727 3.87327C17.1871 3.57966 16.5435 3.74905 16.2499 4.24592L16.1256 4.46047C15.482 5.57843 14.5447 6.2108 13.5397 6.2108C12.5346 6.2108 11.5974 5.57843 10.9537 4.46047L10.8295 4.23462C10.5472 3.76034 9.91478 3.59095 9.42921 3.87327L7.47561 5.00251C7.18201 5.1719 6.95616 5.45421 6.86582 5.79298C6.77548 6.13176 6.82065 6.48182 6.99004 6.77543C7.63371 7.88209 7.71275 9.02263 7.21588 9.89215C6.71902 10.7617 5.6914 11.2585 4.40406 11.2585C3.68134 11.2585 3.10543 11.8344 3.10543 12.5572V14.5446C3.10543 15.2561 3.68134 15.8433 4.40406 15.8433C5.6914 15.8433 6.71902 16.3401 7.21588 17.2097C7.71275 18.0792 7.63371 19.2197 6.99004 20.3264C6.82065 20.62 6.77548 20.9701 6.86582 21.3088C6.95616 21.6476 7.17071 21.9186 7.46432 22.0993L9.41791 23.2172C9.65506 23.3641 9.93737 23.3979 10.1971 23.3302C10.4681 23.2624 10.694 23.0817 10.8408 22.8446L10.965 22.63C11.6087 21.5234 12.5459 20.8797 13.551 20.8797Z" fill="#7B7B7B"/>
</svg>
