<svg width="22" height="23" viewBox="0 0 22 23" fill="none" xmlns="http://www.w3.org/2000/svg">
<path d="M11 7.70793V21.3081M11 7.70793C11 5.46769 11 4.34804 11.3633 3.49238C11.6829 2.73972 12.1925 2.12758 12.8197 1.74409C13.5327 1.30811 14.4663 1.30811 16.3331 1.30811H19.222C19.8443 1.30811 20.1556 1.30811 20.3933 1.45343C20.6024 1.58126 20.7719 1.78509 20.8785 2.03598C20.9996 2.3212 21 2.69485 21 3.4416V15.1751C21 15.9218 20.9996 16.2947 20.8785 16.5799C20.7719 16.8308 20.6028 17.0353 20.3937 17.1631C20.1562 17.3083 19.8455 17.3083 19.2245 17.3083H16.077C15.0335 17.3083 14.5107 17.3083 14.0371 17.4809C13.6178 17.6337 13.2285 17.8839 12.89 18.2178C12.5076 18.595 12.2178 19.116 11.6389 20.158L11 21.3081M11 7.70793C11 5.46769 10.9998 4.34804 10.6365 3.49238C10.3169 2.73972 9.80696 2.12758 9.17975 1.74409C8.46671 1.30811 7.53307 1.30811 5.66623 1.30811H2.77734C2.15506 1.30811 1.84423 1.30811 1.60655 1.45343C1.39748 1.58126 1.22763 1.78509 1.1211 2.03598C1 2.3212 1 2.69485 1 3.4416V15.1751C1 15.9218 1 16.2947 1.1211 16.5799C1.22763 16.8308 1.39748 17.0353 1.60655 17.1631C1.844 17.3083 2.15446 17.3083 2.77552 17.3083H5.92303C6.9666 17.3083 7.48825 17.3083 7.96187 17.4809C8.38117 17.6337 8.77236 17.8839 9.11089 18.2178C9.49174 18.5935 9.77969 19.1118 10.3539 20.1453L11 21.3081" stroke="#4A4C4B" stroke-width="2" stroke-linecap="round" stroke-linejoin="round"/>
</svg>
