<svg
        width="25"
        height="25"
        viewBox="0 0 28 28"
        fill="none"
        xmlns="http://www.w3.org/2000/svg"
      >
        <path
          d="M14.2312 13.6218C14.1973 13.6218 14.1748 13.6218 14.1409 13.6218C14.0844 13.6105 14.0054 13.6105 13.9376 13.6218C10.6628 13.5202 8.18976 10.9455 8.18976 7.77235C8.18976 4.5427 10.8209 1.91156 14.0505 1.91156C17.2802 1.91156 19.9113 4.5427 19.9113 7.77235C19.9 10.9455 17.4157 13.5202 14.2651 13.6218C14.2538 13.6218 14.2425 13.6218 14.2312 13.6218ZM14.0505 3.60543C11.7582 3.60543 9.88363 5.47998 9.88363 7.77235C9.88363 10.0308 11.6453 11.8489 13.8925 11.928C13.9489 11.9167 14.107 11.9167 14.2538 11.928C16.4671 11.8263 18.2062 10.0083 18.2175 7.77235C18.2175 5.47998 16.3429 3.60543 14.0505 3.60543Z"
          fill="#E3EDED"
        />
        <path
          d="M14.2425 25.9645C12.0292 25.9645 9.80455 25.3999 8.12197 24.2706C6.55232 23.2317 5.69409 21.8089 5.69409 20.2618C5.69409 18.7147 6.55232 17.2806 8.12197 16.2304C11.5097 13.9832 16.9978 13.9832 20.363 16.2304C21.9214 17.2693 22.7909 18.6921 22.7909 20.2392C22.7909 21.7863 21.9326 23.2204 20.363 24.2706C18.6691 25.3999 16.4558 25.9645 14.2425 25.9645ZM9.05924 17.6532C7.97517 18.3759 7.38796 19.3019 7.38796 20.2731C7.38796 21.2329 7.98646 22.1589 9.05924 22.8703C11.8711 24.7562 16.6139 24.7562 19.4257 22.8703C20.5098 22.1476 21.097 21.2216 21.097 20.2505C21.097 19.2906 20.4985 18.3647 19.4257 17.6532C16.6139 15.7787 11.8711 15.7787 9.05924 17.6532Z"
          fill="#E3EDED"
        />
      </svg>