<svg
        width="23"
        height="25"
        viewBox="0 0 23 25"
        fill="none"
        xmlns="http://www.w3.org/2000/svg"
      >
        <path
          d="M9.18269 1.55991C9.36945 1.0983 9.68982 0.702977 10.1027 0.424622C10.5156 0.146267 11.0022 -0.00244141 11.5002 -0.00244141C11.9981 -0.00244141 12.4848 0.146267 12.8977 0.424622C13.3106 0.702977 13.6309 1.0983 13.8177 1.55991C15.6661 2.06826 17.2966 3.16935 18.4586 4.69407C19.6207 6.2188 20.2501 8.08283 20.2502 9.9999V15.8712L22.5402 19.3062C22.6658 19.4944 22.7379 19.7132 22.7489 19.9393C22.7599 20.1653 22.7093 20.3901 22.6025 20.5896C22.4958 20.7891 22.3368 20.956 22.1427 21.0722C21.9486 21.1885 21.7265 21.2499 21.5002 21.2499H15.8314C15.6809 22.2913 15.1603 23.2436 14.3648 23.9323C13.5694 24.6211 12.5524 25.0002 11.5002 25.0002C10.448 25.0002 9.43101 24.6211 8.63556 23.9323C7.84011 23.2436 7.31944 22.2913 7.16894 21.2499H1.50019C1.27388 21.2499 1.05182 21.1885 0.857676 21.0722C0.663536 20.956 0.504607 20.7891 0.397845 20.5896C0.291083 20.3901 0.240493 20.1653 0.251472 19.9393C0.262452 19.7132 0.334589 19.4944 0.460187 19.3062L2.75019 15.8712V9.9999C2.75019 5.9699 5.47519 2.57491 9.18269 1.55991ZM9.73269 21.2499C9.86179 21.6157 10.1012 21.9325 10.4178 22.1565C10.7345 22.3806 11.1129 22.5009 11.5008 22.5009C11.8887 22.5009 12.2671 22.3806 12.5838 22.1565C12.9005 21.9325 13.1398 21.6157 13.2689 21.2499H9.73144H9.73269ZM11.5002 3.74991C9.84258 3.74991 8.25287 4.40839 7.08077 5.58049C5.90867 6.75259 5.25019 8.3423 5.25019 9.9999V16.2499C5.25024 16.4968 5.17717 16.7382 5.04019 16.9437L3.83644 18.7499H19.1627L17.9589 16.9437C17.8224 16.7381 17.7498 16.4967 17.7502 16.2499V9.9999C17.7502 8.3423 17.0917 6.75259 15.9196 5.58049C14.7475 4.40839 13.1578 3.74991 11.5002 3.74991Z"
          fill="#0E381F"
        />
      </svg>